<?xml version="1.0" encoding="UTF-8" standalone="no"?>
<svg
   xmlns:dc="http://purl.org/dc/elements/1.1/"
   xmlns:cc="http://creativecommons.org/ns#"
   xmlns:rdf="http://www.w3.org/1999/02/22-rdf-syntax-ns#"
   xmlns:svg="http://www.w3.org/2000/svg"
   xmlns="http://www.w3.org/2000/svg"
   viewBox="0 0 1093.3333 681.33331"
   height="681.33331"
   width="1093.3333"
   xml:space="preserve"
   id="svg2"
   version="1.1"><metadata
     id="metadata8"><rdf:RDF><cc:Work
         rdf:about=""><dc:format>image/svg+xml</dc:format><dc:type
           rdf:resource="http://purl.org/dc/dcmitype/StillImage" /></cc:Work></rdf:RDF></metadata><defs
     id="defs6"><clipPath
       id="clipPath24"
       clipPathUnits="userSpaceOnUse"><path
         id="path22"
         d="M 403,77 H 641 V 395 H 403 Z" /></clipPath><clipPath
       id="clipPath34"
       clipPathUnits="userSpaceOnUse"><path
         id="path32"
         d="M 167,277 H 641 V 395 H 167 Z" /></clipPath><clipPath
       id="clipPath54"
       clipPathUnits="userSpaceOnUse"><path
         style="clip-rule:evenodd"
         id="path52"
         d="m 166,428 7,-14 h -14 z" /></clipPath><clipPath
       id="clipPath64"
       clipPathUnits="userSpaceOnUse"><path
         style="clip-rule:evenodd"
         id="path62"
         d="M 655,79 641,72 V 86 Z" /></clipPath><clipPath
       id="clipPath74"
       clipPathUnits="userSpaceOnUse"><path
         id="path72"
         d="m 36.02724,431.2517 c 0.37535,1.3968 0.46919,1.8624 2.76822,1.8624 0.7507,0 1.21989,0 1.21989,0.838 0,0.5121 -0.42227,0.5121 -0.60995,0.5121 -0.79762,0 -1.68908,-0.0931 -2.53362,-0.0931 h -2.58054 c -1.9706,0 -4.03504,0.0931 -6.00563,0.0931 -0.42227,0 -0.9853,0 -0.9853,-0.838 0,-0.4656 0.37535,-0.4656 0.37535,-0.5121 h 1.17297 c 3.75352,0 3.75352,-0.3725 3.75352,-1.0709 0,-0.0465 0,-0.3724 -0.18767,-1.1174 l -5.39569,-21.277 c -1.21989,-4.749 -4.36346,-7.0303 -6.61557,-7.0303 -1.59525,0 -3.84736,0.7449 -4.41039,3.2125 0.18768,-0.0466 0.42228,-0.0931 0.60995,-0.0931 1.54833,0 2.76822,1.3502 2.76822,2.7003 0,0.745 -0.46919,1.7227 -1.87676,1.7227 -0.84454,0 -2.81514,-0.4656 -2.81514,-3.4919 0,-2.9331 2.43979,-4.9817 5.81796,-4.9817 4.26962,0 8.86768,3.2125 9.99374,7.6355 z" /></clipPath><clipPath
       id="clipPath84"
       clipPathUnits="userSpaceOnUse"><path
         id="path82"
         d="m 55.95816,391.3514 c 0,0.1397 0,0.2328 -0.79762,1.0243 -4.6919,4.7024 -7.31936,12.3845 -7.31936,21.8823 0,9.0323 2.20519,16.8075 7.64779,22.3014 0.46919,0.419 0.46919,0.5121 0.46919,0.6518 0,0.2793 -0.23459,0.3724 -0.42227,0.3724 -0.60995,0 -4.4573,-3.3521 -6.75633,-7.9148 -2.39287,-4.7024 -3.47201,-9.6841 -3.47201,-15.4108 0,-4.1437 0.65687,-9.6841 3.09666,-14.6658 2.76821,-5.587 6.61557,-8.6133 7.13168,-8.6133 0.18768,0 0.42227,0.0932 0.42227,0.3725 z" /></clipPath><clipPath
       id="clipPath94"
       clipPathUnits="userSpaceOnUse"><path
         id="path92"
         d="m 70.72746,420.2175 h 5.30184 c -1.26681,-5.2146 -2.06443,-8.6133 -2.06443,-12.338 0,-0.6518 0,-5.68 1.92368,-5.68 0.9853,0 1.82984,0.8846 1.82984,1.676 0,0.2328 0,0.326 -0.32844,1.0243 -1.26681,3.2125 -1.26681,7.2165 -1.26681,7.5424 0,0.2794 0,3.585 0.9853,7.7753 h 5.25492 c 0.60995,0 2.15828,0 2.15828,1.4898 0,1.0243 -0.89146,1.0243 -1.736,1.0243 H 67.34929 c -1.07913,0 -2.67438,0 -4.83265,-2.2814 -1.21989,-1.3501 -2.7213,-3.8177 -2.7213,-4.0971 0,-0.2793 0.23459,-0.3724 0.5161,-0.3724 0.32844,0 0.37536,0.1396 0.60995,0.419 2.43979,3.8178 4.87958,3.8178 6.05255,3.8178 h 2.67438 c -1.03222,-3.4919 -2.20519,-7.5425 -6.05255,-15.6901 -0.37535,-0.745 -0.37535,-0.8381 -0.37535,-1.1174 0,-0.9778 0.84455,-1.2105 1.26681,-1.2105 1.36065,0 1.73601,1.2105 2.29903,3.1659 0.75071,2.3745 0.75071,2.4676 1.2199,4.3299 z" /></clipPath><clipPath
       id="clipPath104"
       clipPathUnits="userSpaceOnUse"><path
         id="path102"
         d="m 95.46854,402.4788 c 0,2.7004 -0.89146,4.7024 -2.81514,4.7024 -1.50141,0 -2.25211,-1.2105 -2.25211,-2.2348 0,-1.0243 0.70378,-2.2814 2.29903,-2.2814 0.60994,0 1.12605,0.1863 1.54832,0.6053 0.09384,0.0931 0.14076,0.0931 0.18768,0.0931 0.09384,0 0.09384,-0.6518 0.09384,-0.8846 0,-1.5364 -0.28152,-4.5627 -3.00281,-7.589 -0.51611,-0.5587 -0.51611,-0.6518 -0.51611,-0.7449 0,-0.2328 0.23459,-0.4656 0.46918,-0.4656 0.37536,0 3.98812,3.4453 3.98812,8.7995 z" /></clipPath><clipPath
       id="clipPath114"
       clipPathUnits="userSpaceOnUse"><path
         id="path112"
         d="m 125.1519,421.7073 c -1.4545,-0.2793 -2.2052,-1.3036 -2.2052,-2.3279 0,-1.1174 0.8915,-1.4899 1.5484,-1.4899 1.3137,0 2.3928,1.1174 2.3928,2.5142 0,1.4898 -1.4545,2.7935 -3.8004,2.7935 -1.8768,0 -4.035,-0.8381 -6.0056,-3.6781 -0.3285,2.4676 -2.2052,3.6781 -4.082,3.6781 -1.8298,0 -2.7682,-1.3968 -3.3312,-2.421 -0.7977,-1.6761 -1.5014,-4.4696 -1.5014,-4.7024 0,-0.1863 0.1876,-0.419 0.5161,-0.419 0.3753,0 0.4222,0.0465 0.7037,1.1174 0.7038,2.7934 1.5953,5.4938 3.4721,5.4938 1.126,0 1.4544,-0.7915 1.4544,-2.1417 0,-1.0242 -0.4691,-2.84 -0.7976,-4.2833 l -1.3137,-5.0283 c -0.1877,-0.8846 -0.7038,-2.9797 -0.9384,-3.8178 -0.3284,-1.2105 -0.8445,-3.3987 -0.8445,-3.6315 0,-0.6518 0.5161,-1.1639 1.2199,-1.1639 0.5161,0 1.4075,0.3259 1.689,1.257 0.1408,0.3725 1.8768,7.4028 2.1583,8.4736 0.2346,1.0243 0.5161,2.002 0.7507,3.0263 0.1877,0.6518 0.3754,1.3967 0.5161,2.002 0.1408,0.419 1.4076,2.7004 2.5806,3.7246 0.563,0.5122 1.7829,1.583 3.7066,1.583 0.7507,0 1.5014,-0.1397 2.1113,-0.5587 z" /></clipPath><clipPath
       id="clipPath124"
       clipPathUnits="userSpaceOnUse"><path
         id="path122"
         d="m 142.1111,414.258 c 0,3.5384 -0.4692,9.3116 -3.0967,14.7124 -2.7682,5.587 -6.6155,8.6132 -7.1317,8.6132 -0.1876,0 -0.4222,-0.0931 -0.4222,-0.3724 0,-0.1397 0,-0.2328 0.7976,-1.0243 4.6919,-4.7024 7.3194,-12.3845 7.3194,-21.8823 0,-9.0323 -2.2052,-16.8075 -7.6478,-22.3014 -0.4692,-0.419 -0.4692,-0.5121 -0.4692,-0.6518 0,-0.2793 0.2346,-0.3725 0.4222,-0.3725 0.61,0 4.4573,3.3522 6.7564,7.9149 2.3928,4.749 3.472,9.7772 3.472,15.3642 z" /></clipPath><clipPath
       id="clipPath134"
       clipPathUnits="userSpaceOnUse"><path
         id="path132"
         d="m 566.9192,54.32265 c 0.3277,1.22515 0.4096,1.63353 2.4165,1.63353 0.6553,0 1.0649,0 1.0649,0.73508 0,0.44922 -0.3686,0.44922 -0.5324,0.44922 -0.6963,0 -1.4745,-0.08167 -2.2117,-0.08167 h -2.2527 c -1.7202,0 -3.5224,0.08167 -5.2426,0.08167 -0.3686,0 -0.8601,0 -0.8601,-0.73508 0,-0.40838 0.3276,-0.40838 0.3276,-0.44922 h 1.024 c 3.2766,0 3.2766,-0.32671 3.2766,-0.93928 0,-0.04084 0,-0.3267 -0.1638,-0.98011 l -4.7102,-18.66303 c -1.0649,-4.16549 -3.809,-6.16656 -5.775,-6.16656 -1.3926,0 -3.3585,0.65341 -3.85,2.81783 0.1638,-0.04084 0.3686,-0.08167 0.5324,-0.08167 1.3516,0 2.4165,1.1843 2.4165,2.36861 0,0.65341 -0.4096,1.51101 -1.6383,1.51101 -0.7372,0 -2.4574,-0.40838 -2.4574,-3.06286 0,-2.5728 2.1298,-4.36968 5.0787,-4.36968 3.7272,0 7.741,2.81783 8.724,6.69745 z" /></clipPath><clipPath
       id="clipPath144"
       clipPathUnits="userSpaceOnUse"><path
         id="path142"
         d="m 584.3178,19.32437 c 0,0.12252 0,0.20419 -0.6962,0.89844 -4.0958,4.12465 -6.3894,10.86295 -6.3894,19.19392 0,7.9226 1.925,14.74257 6.6761,19.56147 0.4095,0.36754 0.4095,0.44922 0.4095,0.57173 0,0.24503 -0.2048,0.32671 -0.3686,0.32671 -0.5324,0 -3.891,-2.94035 -5.8979,-6.94248 -2.0888,-4.12465 -3.0309,-8.49433 -3.0309,-13.51743 0,-3.63459 0.5734,-8.49433 2.7032,-12.86401 2.4165,-4.90057 5.7751,-7.55505 6.2256,-7.55505 0.1638,0 0.3686,0.08167 0.3686,0.3267 z" /></clipPath><clipPath
       id="clipPath154"
       clipPathUnits="userSpaceOnUse"><path
         id="path152"
         d="m 597.2106,44.64401 h 4.6283 c -1.1059,-4.57386 -1.8022,-7.55505 -1.8022,-10.8221 0,-0.57174 0,-4.98225 1.6793,-4.98225 0.8601,0 1.5973,0.77592 1.5973,1.47017 0,0.20419 0,0.28587 -0.2867,0.89844 -1.1058,2.81783 -1.1058,6.32991 -1.1058,6.61578 0,0.24502 0,3.14453 0.8601,6.81996 h 4.5873 c 0.5324,0 1.884,0 1.884,1.30683 0,0.89843 -0.7782,0.89843 -1.5154,0.89843 h -13.4751 c -0.942,0 -2.3346,0 -4.2187,-2.00107 -1.0649,-1.1843 -2.3755,-3.34872 -2.3755,-3.59375 0,-0.24503 0.2048,-0.32671 0.4505,-0.32671 0.2867,0 0.3277,0.12252 0.5325,0.36755 2.1298,3.34872 4.2596,3.34872 5.2835,3.34872 h 2.3346 c -0.9011,-3.06285 -1.925,-6.61577 -5.2835,-13.76245 -0.3277,-0.65341 -0.3277,-0.73508 -0.3277,-0.98011 0,-0.8576 0.7372,-1.06179 1.1059,-1.06179 1.1877,0 1.5154,1.06179 2.0069,2.77699 0.6553,2.08274 0.6553,2.16442 1.0649,3.79795 z" /></clipPath><clipPath
       id="clipPath164"
       clipPathUnits="userSpaceOnUse"><path
         id="path162"
         d="m 618.8083,29.08468 c 0,2.36862 -0.7782,4.12466 -2.4575,4.12466 -1.3107,0 -1.966,-1.06179 -1.966,-1.96023 0,-0.89844 0.6144,-2.00107 2.007,-2.00107 0.5324,0 0.9829,0.16335 1.3516,0.53089 0.0819,0.08168 0.1228,0.08168 0.1638,0.08168 0.0819,0 0.0819,-0.57173 0.0819,-0.77593 0,-1.34765 -0.2457,-4.00213 -2.6213,-6.65661 -0.4505,-0.49006 -0.4505,-0.57173 -0.4505,-0.65341 0,-0.20419 0.2048,-0.40838 0.4095,-0.40838 0.3277,0 3.4815,3.02202 3.4815,7.7184 z" /></clipPath><clipPath
       id="clipPath174"
       clipPathUnits="userSpaceOnUse"><path
         id="path172"
         d="m 655.7788,38.64081 c 0.6963,0 1.4336,0 1.4336,0.81676 0,0.81676 -0.7373,0.81676 -1.4336,0.81676 h -22.1581 c -0.6963,0 -1.4335,0 -1.4335,-0.81676 0,-0.81676 0.7372,-0.81676 1.4335,-0.81676 z" /></clipPath><clipPath
       id="clipPath184"
       clipPathUnits="userSpaceOnUse"><path
         id="path182"
         d="m 676.6583,44.60318 c -0.7782,0 -1.1468,0 -1.7202,-0.49006 -0.2458,-0.20419 -0.6963,-0.81676 -0.6963,-1.47017 0,-0.81677 0.6143,-1.30682 1.3925,-1.30682 0.983,0 2.0889,0.81676 2.0889,2.45028 0,1.96023 -1.8841,3.47125 -4.7101,3.47125 -5.3655,0 -10.731,-5.83986 -10.731,-11.63887 0,-3.55292 2.2117,-6.77913 6.3894,-6.77913 5.5703,0 9.0926,4.32884 9.0926,4.85973 0,0.24503 -0.2457,0.44922 -0.4095,0.44922 -0.1229,0 -0.1639,-0.04083 -0.5325,-0.40838 -2.6213,-3.47124 -6.5123,-4.08381 -8.0687,-4.08381 -2.826,0 -3.7271,2.45029 -3.7271,4.49219 0,1.42934 0.6963,5.39064 2.1708,8.16763 1.0649,1.91939 3.2766,4.12465 5.8569,4.12465 0.5325,0 2.7851,-0.08167 3.6043,-1.83771 z" /></clipPath><clipPath
       id="clipPath194"
       clipPathUnits="userSpaceOnUse"><path
         id="path192"
         d="m 689.4538,39.41673 c 0,3.1037 -0.4096,8.16763 -2.7033,12.90485 -2.4165,4.90058 -5.775,7.55506 -6.2255,7.55506 -0.1639,0 -0.3686,-0.08168 -0.3686,-0.32671 0,-0.12251 0,-0.20419 0.6962,-0.89844 4.0958,-4.12465 6.3894,-10.86294 6.3894,-19.19392 0,-7.9226 -1.925,-14.74257 -6.6761,-19.56146 -0.4095,-0.36755 -0.4095,-0.44922 -0.4095,-0.57174 0,-0.24503 0.2047,-0.3267 0.3686,-0.3267 0.5324,0 3.891,2.94034 5.8979,6.94248 2.0888,4.16549 3.0309,8.57601 3.0309,13.47658 z" /></clipPath><clipPath
       id="clipPath224"
       clipPathUnits="userSpaceOnUse"><path
         id="path222"
         d="m 345.5233,255.2304 h 4.6198 c -1.1038,-4.5782 -1.7989,-7.5622 -1.7989,-10.8323 0,-0.5722 0,-4.9869 1.6763,-4.9869 0.8585,0 1.5944,0.7767 1.5944,1.4716 0,0.2043 0,0.2861 -0.2862,0.8992 -1.1038,2.8205 -1.1038,6.3359 -1.1038,6.622 0,0.2453 0,3.1475 0.8585,6.8264 h 4.579 c 0.5315,0 1.8806,0 1.8806,1.308 0,0.8993 -0.7767,0.8993 -1.5126,0.8993 h -13.4507 c -0.9403,0 -2.3304,0 -4.211,-2.0029 -1.063,-1.1854 -2.3713,-3.3519 -2.3713,-3.5972 0,-0.2452 0.2044,-0.327 0.4497,-0.327 0.2862,0 0.3271,0.1227 0.5315,0.3679 2.126,3.3519 4.2519,3.3519 5.274,3.3519 h 2.3304 c -0.8995,-3.0657 -1.9216,-6.622 -5.274,-13.7754 -0.3271,-0.654 -0.3271,-0.7358 -0.3271,-0.981 0,-0.8584 0.7359,-1.0628 1.1039,-1.0628 1.1856,0 1.5127,1.0628 2.0033,2.7796 0.6541,2.0847 0.6541,2.1665 1.0629,3.8015 z" /></clipPath><clipPath
       id="clipPath234"
       clipPathUnits="userSpaceOnUse"><path
         id="path232"
         d="m 378.0571,240.0108 c 0.0545,0.109 0.109,0.2725 0.109,0.3815 0,0.0545 -0.0272,0.3815 -0.4088,0.3815 -0.2998,0 -0.3271,-0.0818 -0.5996,-0.6813 -1.7444,-3.9786 -3.0254,-5.5047 -7.4681,-5.5047 h -4.9605 c -0.2453,0.0545 -0.3271,0.0545 -0.3271,0.2453 0,0.218 0.0545,0.436 0.109,0.5995 l 1.8807,7.4395 h 2.9163 c 1.9897,0 2.3985,-0.327 2.3985,-1.199 0,-0.0273 0,-0.4633 -0.1908,-1.2263 -0.0545,-0.1363 -0.0817,-0.2998 -0.0817,-0.3815 0,-0.0273 0.0272,-0.3815 0.4088,-0.3815 0.3271,0 0.3816,0.1635 0.4906,0.6267 l 1.4446,5.6955 c 0.0272,0.0817 0.109,0.4905 0.109,0.545 0,0.2725 -0.2181,0.4088 -0.4088,0.4088 -0.3544,0 -0.3816,-0.1908 -0.5179,-0.6541 -0.5451,-2.1255 -1.281,-2.5343 -3.625,-2.5343 h -2.7256 l 1.6354,6.513 c 0.2453,0.981 0.2725,1.0355 1.39,1.0355 h 4.2519 c 3.2707,0 4.3064,-0.654 4.3064,-3.0521 0,-0.5723 -0.1363,-1.2535 -0.1363,-1.7713 0,-0.327 0.1908,-0.4633 0.4088,-0.4633 0.3816,0 0.4089,0.2453 0.4634,0.7086 l 0.4906,4.6326 c 0.0273,0.1363 0.0273,0.327 0.0273,0.4633 0,0.3815 -0.3271,0.3815 -0.8177,0.3815 h -14.3638 c -0.5178,0 -0.8449,0 -0.8449,-0.5178 0,-0.3815 0.3543,-0.3815 0.8177,-0.3815 0.0817,0 0.5723,0 1.0357,-0.0545 0.5724,-0.0545 0.6269,-0.1362 0.6269,-0.3815 0,-0.1363 -0.0545,-0.2998 -0.0818,-0.436 l -3.6523,-14.6065 c -0.2453,-1.0356 -0.2998,-1.2536 -2.3167,-1.2536 -0.5178,0 -0.8449,0 -0.8449,-0.5178 0,-0.3815 0.3543,-0.3815 0.8177,-0.3815 h 14.7453 c 0.6814,0 0.7086,0 0.9267,0.4906 z" /></clipPath><clipPath
       id="clipPath254"
       clipPathUnits="userSpaceOnUse"><path
         id="path252"
         d="m 195.5055,350.9776 c 0.2087,0.7775 0.2609,1.0367 1.5394,1.0367 0.4175,0 0.6784,0 0.6784,0.4665 0,0.2851 -0.2348,0.2851 -0.3392,0.2851 -0.4435,0 -0.9393,-0.0518 -1.4089,-0.0518 h -1.4351 c -1.0958,0 -2.2438,0.0518 -3.3397,0.0518 -0.2348,0 -0.5479,0 -0.5479,-0.4665 0,-0.2592 0.2087,-0.2592 0.2087,-0.2851 h 0.6523 c 2.0873,0 2.0873,-0.2073 2.0873,-0.5961 0,-0.0259 0,-0.2073 -0.1043,-0.622 l -3.0006,-11.8444 c -0.6783,-2.6436 -2.4265,-3.9135 -3.6789,-3.9135 -0.8871,0 -2.1395,0.4147 -2.4526,1.7883 0.1044,-0.0259 0.2348,-0.0518 0.3392,-0.0518 0.861,0 1.5394,0.7516 1.5394,1.5032 0,0.4147 -0.2609,0.9589 -1.0437,0.9589 -0.4696,0 -1.5655,-0.2591 -1.5655,-1.9438 0,-1.6328 1.3568,-2.7732 3.2354,-2.7732 2.3743,0 4.9313,1.7883 5.5575,4.2505 z" /></clipPath><clipPath
       id="clipPath264"
       clipPathUnits="userSpaceOnUse"><path
         id="path262"
         d="m 206.5891,328.7662 c 0,0.0778 0,0.1296 -0.4436,0.5702 -2.6091,2.6177 -4.0703,6.8941 -4.0703,12.1813 0,5.028 1.2263,9.3562 4.253,12.4145 0.2609,0.2333 0.2609,0.2851 0.2609,0.3629 0,0.1555 -0.1305,0.2073 -0.2349,0.2073 -0.3391,0 -2.4787,-1.8661 -3.7571,-4.406 -1.3307,-2.6177 -1.9308,-5.3908 -1.9308,-8.5787 0,-2.3067 0.3653,-5.3909 1.722,-8.1641 1.5394,-3.1101 3.6789,-4.7947 3.9659,-4.7947 0.1044,0 0.2349,0.0518 0.2349,0.2073 z" /></clipPath><clipPath
       id="clipPath274"
       clipPathUnits="userSpaceOnUse"><path
         id="path272"
         d="m 214.8023,344.8351 h 2.9483 c -0.7045,-2.9027 -1.148,-4.7947 -1.148,-6.8681 0,-0.3629 0,-3.162 1.0697,-3.162 0.5479,0 1.0176,0.4925 1.0176,0.9331 0,0.1296 0,0.1814 -0.1826,0.5701 -0.7045,1.7884 -0.7045,4.0173 -0.7045,4.1987 0,0.1555 0,1.9957 0.5479,4.3282 h 2.9223 c 0.3392,0 1.2002,0 1.2002,0.8294 0,0.5702 -0.4958,0.5702 -0.9654,0.5702 h -8.5841 c -0.6001,0 -1.4873,0 -2.6875,-1.27 -0.6784,-0.7516 -1.5133,-2.1252 -1.5133,-2.2807 0,-0.1555 0.1305,-0.2074 0.287,-0.2074 0.1827,0 0.2088,0.0778 0.3392,0.2333 1.3568,2.1252 2.7135,2.1252 3.3658,2.1252 h 1.4872 c -0.574,-1.9438 -1.2263,-4.1986 -3.3658,-8.7342 -0.2087,-0.4147 -0.2087,-0.4665 -0.2087,-0.622 0,-0.5443 0.4696,-0.6739 0.7045,-0.6739 0.7566,0 0.9654,0.6739 1.2785,1.7624 0.4174,1.3218 0.4174,1.3737 0.6783,2.4104 z" /></clipPath><clipPath
       id="clipPath284"
       clipPathUnits="userSpaceOnUse"><path
         id="path282"
         d="m 228.5607,334.9605 c 0,1.5033 -0.4957,2.6177 -1.5655,2.6177 -0.8349,0 -1.2524,-0.6738 -1.2524,-1.244 0,-0.5702 0.3914,-1.27 1.2785,-1.27 0.3392,0 0.6262,0.1037 0.861,0.3369 0.0522,0.0519 0.0783,0.0519 0.1044,0.0519 0.0522,0 0.0522,-0.3629 0.0522,-0.4925 0,-0.8552 -0.1566,-2.5399 -1.6699,-4.2245 -0.287,-0.311 -0.287,-0.3629 -0.287,-0.4147 0,-0.1296 0.1305,-0.2592 0.2609,-0.2592 0.2088,0 2.2178,1.9179 2.2178,4.8984 z" /></clipPath><clipPath
       id="clipPath294"
       clipPathUnits="userSpaceOnUse"><path
         id="path292"
         d="m 245.0676,345.6645 c -0.8088,-0.1555 -1.2263,-0.7257 -1.2263,-1.2959 0,-0.622 0.4957,-0.8293 0.861,-0.8293 0.7306,0 1.3307,0.622 1.3307,1.3995 0,0.8294 -0.8088,1.5551 -2.1134,1.5551 -1.0437,0 -2.2439,-0.4665 -3.3397,-2.0475 -0.1827,1.3736 -1.2263,2.0475 -2.27,2.0475 -1.0176,0 -1.5394,-0.7776 -1.8525,-1.3477 -0.4436,-0.9331 -0.8349,-2.4881 -0.8349,-2.6177 0,-0.1037 0.1043,-0.2333 0.287,-0.2333 0.2087,0 0.2348,0.0259 0.3913,0.622 0.3914,1.5551 0.8872,3.0583 1.9308,3.0583 0.6262,0 0.8089,-0.4406 0.8089,-1.1922 0,-0.5702 -0.261,-1.581 -0.4436,-2.3844 l -0.7306,-2.7991 c -0.1043,-0.4924 -0.3913,-1.6587 -0.5218,-2.1253 -0.1826,-0.6738 -0.4696,-1.8919 -0.4696,-2.0215 0,-0.3629 0.287,-0.648 0.6783,-0.648 0.287,0 0.7828,0.1815 0.9393,0.6998 0.0783,0.2073 1.0437,4.1209 1.2002,4.717 0.1305,0.5702 0.2871,1.1145 0.4175,1.6847 0.1044,0.3628 0.2087,0.7775 0.287,1.1144 0.0783,0.2333 0.7828,1.5032 1.4351,2.0734 0.3131,0.2851 0.9914,0.8812 2.0612,0.8812 0.4175,0 0.8349,-0.0777 1.1741,-0.311 z" /></clipPath><clipPath
       id="clipPath304"
       clipPathUnits="userSpaceOnUse"><path
         id="path302"
         d="m 254.4986,341.5177 c 0,1.9697 -0.2609,5.1835 -1.7221,8.19 -1.5394,3.1101 -3.6789,4.7947 -3.9659,4.7947 -0.1044,0 -0.2348,-0.0518 -0.2348,-0.2073 0,-0.0778 0,-0.1296 0.4435,-0.5702 2.6092,-2.6177 4.0703,-6.8941 4.0703,-12.1813 0,-5.028 -1.2263,-9.3562 -4.2529,-12.4145 -0.2609,-0.2333 -0.2609,-0.2851 -0.2609,-0.3629 0,-0.1555 0.1304,-0.2073 0.2348,-0.2073 0.3392,0 2.4787,1.8661 3.7572,4.406 1.3307,2.6436 1.9308,5.4427 1.9308,8.5528 z" /></clipPath><clipPath
       id="clipPath314"
       clipPathUnits="userSpaceOnUse"><path
         id="path312"
         d="m 281.5179,340.9734 c 0.4957,0.2333 0.5218,0.3888 0.5218,0.5702 0,0.1555 -0.0522,0.3369 -0.5218,0.5443 l -14.1156,6.4535 c -0.3392,0.1555 -0.3913,0.1814 -0.4435,0.1814 -0.3131,0 -0.4958,-0.2592 -0.4958,-0.4665 0,-0.311 0.2088,-0.4147 0.548,-0.5702 l 13.411,-6.1425 -13.4371,-6.1684 c -0.5219,-0.2332 -0.5219,-0.4147 -0.5219,-0.5702 0,-0.2073 0.1827,-0.4665 0.4958,-0.4665 0.0522,0 0.0782,0.0259 0.4435,0.1814 z" /></clipPath><clipPath
       id="clipPath324"
       clipPathUnits="userSpaceOnUse"><path
         id="path322"
         d="m 305.3744,350.9776 c 0.2088,0.7775 0.2609,1.0367 1.5394,1.0367 0.4175,0 0.6784,0 0.6784,0.4665 0,0.2851 -0.2348,0.2851 -0.3392,0.2851 -0.4435,0 -0.9393,-0.0518 -1.4089,-0.0518 h -1.4351 c -1.0958,0 -2.2438,0.0518 -3.3397,0.0518 -0.2348,0 -0.5479,0 -0.5479,-0.4665 0,-0.2592 0.2087,-0.2592 0.2087,-0.2851 h 0.6523 c 2.0873,0 2.0873,-0.2073 2.0873,-0.5961 0,-0.0259 0,-0.2073 -0.1043,-0.622 l -3.0006,-11.8444 c -0.6783,-2.6436 -2.4265,-3.9135 -3.6789,-3.9135 -0.8871,0 -2.1395,0.4147 -2.4526,1.7883 0.1044,-0.0259 0.2348,-0.0518 0.3392,-0.0518 0.861,0 1.5394,0.7516 1.5394,1.5032 0,0.4147 -0.2609,0.9589 -1.0436,0.9589 -0.4697,0 -1.5655,-0.2591 -1.5655,-1.9438 0,-1.6328 1.3567,-2.7732 3.2353,-2.7732 2.3743,0 4.9313,1.7883 5.5575,4.2505 z" /></clipPath><clipPath
       id="clipPath334"
       clipPathUnits="userSpaceOnUse"><path
         id="path332"
         d="m 316.458,328.7662 c 0,0.0778 0,0.1296 -0.4436,0.5702 -2.6091,2.6177 -4.0703,6.8941 -4.0703,12.1813 0,5.028 1.2263,9.3562 4.253,12.4145 0.2609,0.2333 0.2609,0.2851 0.2609,0.3629 0,0.1555 -0.1305,0.2073 -0.2348,0.2073 -0.3392,0 -2.4787,-1.8661 -3.7572,-4.406 -1.3307,-2.6177 -1.9308,-5.3908 -1.9308,-8.5787 0,-2.3067 0.3653,-5.3909 1.722,-8.1641 1.5394,-3.1101 3.6789,-4.7947 3.966,-4.7947 0.1043,0 0.2348,0.0518 0.2348,0.2073 z" /></clipPath><clipPath
       id="clipPath344"
       clipPathUnits="userSpaceOnUse"><path
         id="path342"
         d="m 324.6712,344.8351 h 2.9483 c -0.7045,-2.9027 -1.148,-4.7947 -1.148,-6.8681 0,-0.3629 0,-3.162 1.0697,-3.162 0.548,0 1.0176,0.4925 1.0176,0.9331 0,0.1296 0,0.1814 -0.1826,0.5701 -0.7045,1.7884 -0.7045,4.0173 -0.7045,4.1987 0,0.1555 0,1.9957 0.5479,4.3282 h 2.9223 c 0.3392,0 1.2002,0 1.2002,0.8294 0,0.5702 -0.4958,0.5702 -0.9654,0.5702 h -8.5841 c -0.6001,0 -1.4872,0 -2.6875,-1.27 -0.6783,-0.7516 -1.5133,-2.1252 -1.5133,-2.2807 0,-0.1555 0.1305,-0.2074 0.287,-0.2074 0.1827,0 0.2088,0.0778 0.3392,0.2333 1.3568,2.1252 2.7135,2.1252 3.3658,2.1252 h 1.4873 c -0.5741,-1.9438 -1.2263,-4.1986 -3.3659,-8.7342 -0.2087,-0.4147 -0.2087,-0.4665 -0.2087,-0.622 0,-0.5443 0.4697,-0.6739 0.7045,-0.6739 0.7566,0 0.9654,0.6739 1.2785,1.7624 0.4174,1.3218 0.4174,1.3737 0.6784,2.4104 z" /></clipPath><clipPath
       id="clipPath354"
       clipPathUnits="userSpaceOnUse"><path
         id="path352"
         d="m 345.434,335.1852 c 0.0348,0.0691 0.0696,0.1728 0.0696,0.2419 0,0.0345 -0.0174,0.2419 -0.2609,0.2419 -0.1914,0 -0.2088,-0.0519 -0.3827,-0.432 -1.1132,-2.5226 -1.9308,-3.4902 -4.7661,-3.4902 h -3.1657 c -0.1566,0.0345 -0.2088,0.0345 -0.2088,0.1555 0,0.1382 0.0348,0.2764 0.0696,0.3801 l 1.2002,4.717 h 1.8612 c 1.2698,0 1.5307,-0.2073 1.5307,-0.7602 0,-0.0173 0,-0.2938 -0.1217,-0.7776 -0.0348,-0.0864 -0.0522,-0.19 -0.0522,-0.2419 0,-0.0172 0.0174,-0.2419 0.2609,-0.2419 0.2087,0 0.2435,0.1037 0.3131,0.3974 l 0.9219,3.6112 c 0.0174,0.0519 0.0696,0.311 0.0696,0.3456 0,0.1728 -0.1392,0.2592 -0.2609,0.2592 -0.2262,0 -0.2436,-0.121 -0.3305,-0.4147 -0.3479,-1.3477 -0.8176,-1.6069 -2.3135,-1.6069 h -1.7394 l 1.0436,4.1295 c 0.1566,0.6221 0.174,0.6566 0.8871,0.6566 h 2.7136 c 2.0873,0 2.7483,-0.4147 2.7483,-1.9352 0,-0.3628 -0.087,-0.7948 -0.087,-1.1231 0,-0.2073 0.1218,-0.2937 0.2609,-0.2937 0.2435,0 0.2609,0.1555 0.2957,0.4492 l 0.3131,2.9374 c 0.0174,0.0864 0.0174,0.2073 0.0174,0.2937 0,0.2419 -0.2087,0.2419 -0.5218,0.2419 h -9.1668 c -0.3305,0 -0.5393,0 -0.5393,-0.3283 0,-0.2419 0.2262,-0.2419 0.5219,-0.2419 0.0521,0 0.3652,0 0.6609,-0.0345 0.3653,-0.0346 0.4001,-0.0864 0.4001,-0.2419 0,-0.0864 -0.0348,-0.1901 -0.0522,-0.2765 l -2.3308,-9.2612 c -0.1566,-0.6566 -0.1914,-0.7948 -1.4785,-0.7948 -0.3305,0 -0.5393,0 -0.5393,-0.3283 0,-0.2419 0.2262,-0.2419 0.5219,-0.2419 h 9.4103 c 0.4349,0 0.4523,0 0.5914,0.311 z" /></clipPath><clipPath
       id="clipPath364"
       clipPathUnits="userSpaceOnUse"><path
         id="path362"
         d="m 353.1003,334.9605 c 0,1.5033 -0.4958,2.6177 -1.5655,2.6177 -0.835,0 -1.2524,-0.6738 -1.2524,-1.244 0,-0.5702 0.3914,-1.27 1.2785,-1.27 0.3392,0 0.6262,0.1037 0.861,0.3369 0.0522,0.0519 0.0783,0.0519 0.1044,0.0519 0.0521,0 0.0521,-0.3629 0.0521,-0.4925 0,-0.8552 -0.1565,-2.5399 -1.6698,-4.2245 -0.287,-0.311 -0.287,-0.3629 -0.287,-0.4147 0,-0.1296 0.1304,-0.2592 0.2609,-0.2592 0.2087,0 2.2178,1.9179 2.2178,4.8984 z" /></clipPath><clipPath
       id="clipPath374"
       clipPathUnits="userSpaceOnUse"><path
         id="path372"
         d="m 369.6072,345.6645 c -0.8089,-0.1555 -1.2263,-0.7257 -1.2263,-1.2959 0,-0.622 0.4957,-0.8293 0.861,-0.8293 0.7305,0 1.3306,0.622 1.3306,1.3995 0,0.8294 -0.8088,1.5551 -2.1134,1.5551 -1.0436,0 -2.2438,-0.4665 -3.3397,-2.0475 -0.1826,1.3736 -1.2263,2.0475 -2.27,2.0475 -1.0175,0 -1.5394,-0.7776 -1.8525,-1.3477 -0.4435,-0.9331 -0.8349,-2.4881 -0.8349,-2.6177 0,-0.1037 0.1044,-0.2333 0.287,-0.2333 0.2087,0 0.2348,0.0259 0.3914,0.622 0.3914,1.5551 0.8871,3.0583 1.9308,3.0583 0.6262,0 0.8088,-0.4406 0.8088,-1.1922 0,-0.5702 -0.2609,-1.581 -0.4436,-2.3844 l -0.7305,-2.7991 c -0.1044,-0.4924 -0.3914,-1.6587 -0.5218,-2.1253 -0.1827,-0.6738 -0.4697,-1.8919 -0.4697,-2.0215 0,-0.3629 0.287,-0.648 0.6784,-0.648 0.287,0 0.7827,0.1815 0.9393,0.6998 0.0783,0.2073 1.0436,4.1209 1.2002,4.717 0.1305,0.5702 0.287,1.1145 0.4175,1.6847 0.1043,0.3628 0.2087,0.7775 0.287,1.1144 0.0782,0.2333 0.7827,1.5032 1.435,2.0734 0.3131,0.2851 0.9915,0.8812 2.0612,0.8812 0.4175,0 0.835,-0.0777 1.1742,-0.311 z" /></clipPath><clipPath
       id="clipPath384"
       clipPathUnits="userSpaceOnUse"><path
         id="path382"
         d="m 379.0381,341.5177 c 0,1.9697 -0.2609,5.1835 -1.722,8.19 -1.5394,3.1101 -3.6789,4.7947 -3.9659,4.7947 -0.1044,0 -0.2349,-0.0518 -0.2349,-0.2073 0,-0.0778 0,-0.1296 0.4436,-0.5702 2.6091,-2.6177 4.0703,-6.8941 4.0703,-12.1813 0,-5.028 -1.2263,-9.3562 -4.253,-12.4145 -0.2609,-0.2333 -0.2609,-0.2851 -0.2609,-0.3629 0,-0.1555 0.1305,-0.2073 0.2349,-0.2073 0.3391,0 2.4787,1.8661 3.7571,4.406 1.3307,2.6436 1.9308,5.4427 1.9308,8.5528 z" /></clipPath><clipPath
       id="clipPath404"
       clipPathUnits="userSpaceOnUse"><path
         id="path402"
         d="m 493.1534,349.2077 c 0,2.8037 0,3.6479 -0.6914,4.6126 -0.8716,1.1757 -2.2843,1.3566 -3.3062,1.3566 -2.4947,0 -3.7571,-1.8088 -4.238,-2.9846 -0.4208,2.3214 -2.0439,2.9846 -3.9375,2.9846 -2.9155,0 -4.0577,-2.5022 -4.2981,-3.1052 h -0.0301 v 3.1052 l -4.0877,-0.3316 v -0.8743 c 2.0438,0 2.2843,-0.211 2.2843,-1.6882 v -8.1699 c 0,-1.3567 -0.3306,-1.3567 -2.2843,-1.3567 v -0.8742 c 0.7815,0.0602 2.4045,0.0602 3.2461,0.0602 0.8717,0 2.4947,0 3.2762,-0.0602 v 0.8742 c -1.9236,0 -2.2843,0 -2.2843,1.3567 v 5.6073 c 0,3.1655 2.0739,4.8538 3.9375,4.8538 1.8635,0 2.2843,-1.5375 2.2843,-3.3765 v -7.0846 c 0,-1.3567 -0.3306,-1.3567 -2.2843,-1.3567 v -0.8742 c 0.7814,0.0602 2.4045,0.0602 3.2461,0.0602 0.8716,0 2.4947,0 3.2762,-0.0602 v 0.8742 c -1.9236,0 -2.2843,0 -2.2843,1.3567 v 5.6073 c 0,3.1655 2.0739,4.8538 3.9374,4.8538 1.8636,0 2.2844,-1.5375 2.2844,-3.3765 v -7.0846 c 0,-1.3567 -0.3307,-1.3567 -2.2844,-1.3567 v -0.8742 c 0.7815,0.0602 2.4046,0.0602 3.2462,0.0602 0.8716,0 2.4947,0 3.2762,-0.0602 v 0.8742 c -1.5029,0 -2.2543,0 -2.2843,0.9044 z" /></clipPath><clipPath
       id="clipPath414"
       clipPathUnits="userSpaceOnUse"><path
         id="path412"
         d="m 507.7299,349.9313 c 0,1.6279 0,2.8338 -1.3225,4.0096 -1.052,0.9647 -2.4046,1.3867 -3.7271,1.3867 -2.4647,0 -4.3583,-1.6279 -4.3583,-3.5875 0,-0.8743 0.5711,-1.2963 1.2624,-1.2963 0.7214,0 1.2324,0.5125 1.2324,1.236 0,1.2361 -1.0821,1.2361 -1.5329,1.2361 0.6913,1.2661 2.134,1.8088 3.3363,1.8088 1.3826,0 3.156,-1.1456 3.156,-3.8589 V 349.66 c -6.0415,-0.0905 -8.3258,-2.6229 -8.3258,-4.9442 0,-2.3816 2.7652,-3.1353 4.5987,-3.1353 1.9838,0 3.3363,1.2059 3.9074,2.6529 0.1202,-1.4169 1.052,-2.5022 2.3444,-2.5022 0.6312,0 2.3745,0.4221 2.3745,2.8339 v 1.6882 h -0.6612 v -1.6882 c 0,-1.7184 -0.7214,-1.9596 -1.1422,-1.9596 -1.1421,0 -1.1421,1.5978 -1.1421,2.05 z m -1.9537,-3.7986 c 0,-2.9544 -2.1942,-3.9493 -3.4866,-3.9493 -1.4728,0 -2.7052,1.0853 -2.7052,2.5324 0,3.9794 5.1097,4.3412 6.1918,4.4015 z" /></clipPath><clipPath
       id="clipPath424"
       clipPathUnits="userSpaceOnUse"><path
         id="path422"
         d="m 519.259,348.9967 c 0.8717,1.1456 2.1341,2.7736 2.7052,3.4067 1.2323,1.3867 2.645,1.5978 3.6068,1.5978 v 0.8742 c -1.2925,-0.0603 -1.3526,-0.0603 -2.5248,-0.0603 -1.1422,0 -1.2023,0 -2.7051,0.0603 v -0.8742 c 0.3907,-0.0603 0.8716,-0.2412 0.8716,-0.9346 0,-0.5125 -0.2705,-0.8441 -0.4508,-1.0853 l -1.9237,-2.4419 -2.3444,3.1051 c -0.0902,0.1206 -0.2705,0.392 -0.2705,0.603 0,0.1809 0.1503,0.7235 1.052,0.7537 v 0.8742 c -0.7514,-0.0603 -2.2843,-0.0603 -3.0959,-0.0603 -0.9919,0 -1.052,0 -2.8854,0.0603 v -0.8742 c 1.5329,0 2.1039,-0.0603 2.7351,-0.8743 l 3.5167,-4.6125 c 0.0601,-0.0603 0.1803,-0.2412 0.1803,-0.3317 0,-0.0904 -2.3444,-3.0448 -2.645,-3.4368 -1.3225,-1.6279 -2.645,-1.9595 -3.9374,-1.9897 v -0.8742 c 1.1421,0.0602 1.2022,0.0602 2.4947,0.0602 1.1422,0 1.2023,0 2.7051,-0.0602 v 0.8742 c -0.7214,0.0905 -0.8416,0.5427 -0.8416,0.9647 0,0.4824 0.2104,0.7236 0.511,1.1155 0.4508,0.6331 1.4427,1.8691 2.1641,2.8037 l 2.4647,-3.2258 c 0.5109,-0.6632 0.5109,-0.7235 0.5109,-0.9044 0,-0.2412 -0.2404,-0.7235 -1.052,-0.7537 v -0.8742 c 0.7815,0.0602 2.2543,0.0602 3.0959,0.0602 0.9919,0 1.052,0 2.8554,-0.0602 v 0.8742 c -1.593,0 -2.134,0.0603 -2.8554,1.025 z" /></clipPath><clipPath
       id="clipPath434"
       clipPathUnits="userSpaceOnUse"><path
         id="path432"
         d="m 470.2468,329.1196 h 2.3044 c -0.4208,-1.8289 -0.7815,-3.3162 -0.7815,-4.8035 0,-0.1407 0,-1.0049 0.2204,-1.7284 0.2605,-0.8441 0.4609,-1.0049 0.8215,-1.0049 0.4409,0 0.9018,0.3818 0.9018,0.8642 0,0.1407 -0.0201,0.1809 -0.1002,0.3618 -0.4208,0.9245 -0.7214,1.8892 -0.7214,3.5372 0,0.4623 0,1.3064 0.3006,2.7736 h 2.4246 c 0.3206,0 0.541,0 0.7414,0.1608 0.2404,0.2211 0.3005,0.4823 0.3005,0.6029 0,0.5628 -0.5009,0.5628 -0.8416,0.5628 h -7.2337 c -0.4208,0 -1.1822,0 -2.1641,-0.9647 -0.7213,-0.7236 -1.2824,-1.6481 -1.2824,-1.7888 0,-0.1809 0.1403,-0.2412 0.3006,-0.2412 0.2004,0 0.2404,0.0603 0.3607,0.2211 0.9818,1.4471 2.1641,1.4471 2.6249,1.4471 h 1.1622 c -0.5811,-2.1304 -1.6431,-4.5623 -2.3845,-6.0295 -0.1402,-0.3014 -0.3406,-0.7034 -0.3406,-0.8843 0,-0.422 0.3406,-0.623 0.6612,-0.623 0.7615,0 0.9619,0.7637 1.3826,2.4118 z" /></clipPath><clipPath
       id="clipPath444"
       clipPathUnits="userSpaceOnUse"><path
         id="path442"
         d="m 489.1429,326.346 c 0.3206,0 0.7614,0 0.7614,0.4623 0,0.4623 -0.4408,0.4623 -0.7614,0.4623 h -8.937 c 0.2605,2.7936 2.5849,4.924 5.6307,4.924 h 3.3063 c 0.3206,0 0.7614,0 0.7614,0.4623 0,0.4622 -0.4408,0.4622 -0.7614,0.4622 h -3.3664 c -3.6068,0 -6.5123,-2.8137 -6.5123,-6.3108 0,-3.5172 2.9255,-6.3108 6.5123,-6.3108 h 3.3664 c 0.3206,0 0.7614,0 0.7614,0.4622 0,0.4623 -0.4408,0.4623 -0.7614,0.4623 h -3.3063 c -3.0458,0 -5.3702,2.1304 -5.6307,4.924 z" /></clipPath><clipPath
       id="clipPath454"
       clipPathUnits="userSpaceOnUse"><path
         id="path452"
         d="m 504.7192,333.8226 c 0,0.7436 0.0401,0.9647 1.583,0.9647 h 0.4409 v 0.6632 h -14.1669 v -0.6632 h 0.4409 c 1.5429,0 1.583,-0.2211 1.583,-0.9647 v -10.4109 c 0,-0.7436 -0.0401,-0.9647 -1.583,-0.9647 h -0.4409 v -0.6632 c 1.7033,0.0602 1.7433,0.0602 2.9456,0.0602 1.2023,0 1.2424,0 2.9456,-0.0602 v 0.6632 h -0.4408 c -1.543,0 -1.583,0.2211 -1.583,0.9647 v 11.3756 h 6.4321 v -11.3756 c 0,-0.7436 -0.04,-0.9647 -1.583,-0.9647 h -0.4408 v -0.6632 c 1.7032,0.0602 1.7433,0.0602 2.9456,0.0602 1.2023,0 1.2423,0 2.9456,-0.0602 v 0.6632 h -0.4409 c -1.5429,0 -1.583,0.2211 -1.583,0.9647 z" /></clipPath><clipPath
       id="clipPath464"
       clipPathUnits="userSpaceOnUse"><path
         id="path462"
         d="m 514.3143,316.7592 c 0.1603,0 0.4008,0 0.4008,0.2412 0,0.0804 -0.0201,0.1005 -0.2806,0.3618 -2.7452,2.5926 -3.4265,6.3309 -3.4265,9.4461 0,5.7883 2.3845,8.5015 3.4065,9.4261 0.2805,0.2612 0.3006,0.2813 0.3006,0.3818 0,0.1005 -0.0802,0.2412 -0.2806,0.2412 -0.3206,0 -1.3225,-1.025 -1.4828,-1.2059 -2.6851,-2.8137 -3.2461,-6.4314 -3.2461,-8.8432 0,-4.502 1.8835,-8.1197 4.6087,-10.0491 z" /></clipPath><clipPath
       id="clipPath474"
       clipPathUnits="userSpaceOnUse"><path
         id="path472"
         d="m 524.1169,329.4814 c -0.8216,-0.1005 -1.0821,-0.7236 -1.0821,-1.1255 0,-0.5829 0.521,-0.7437 0.7815,-0.7437 0.1002,0 1.1221,0.0804 1.1221,1.3064 0,1.226 -1.3225,1.7285 -2.5248,1.7285 -2.8454,0 -5.6106,-2.7736 -5.6106,-5.5873 0,-1.9094 1.3025,-3.477 3.5267,-3.477 3.166,0 4.8291,2.0299 4.8291,2.2912 0,0.1809 -0.2004,0.3215 -0.3206,0.3215 -0.1202,0 -0.1803,-0.0603 -0.2805,-0.1808 -1.583,-1.8692 -3.8273,-1.8692 -4.1879,-1.8692 -1.0821,0 -1.9437,0.6633 -1.9437,2.1907 0,0.8843 0.4007,3.0148 1.3425,4.2608 0.8817,1.1255 1.8836,1.4873 2.6651,1.4873 0.2404,0 1.1622,-0.0201 1.6832,-0.6029 z" /></clipPath><clipPath
       id="clipPath484"
       clipPathUnits="userSpaceOnUse"><path
         id="path482"
         d="m 531.3344,326.8083 c 0,1.9093 -0.3207,4.2005 -1.563,6.5721 -0.9819,1.849 -2.8053,3.477 -3.166,3.477 -0.2004,0 -0.2605,-0.1407 -0.2605,-0.2412 0,-0.0804 0,-0.1206 0.2405,-0.3617 2.8053,-2.6731 3.4465,-6.3511 3.4465,-9.4462 0,-5.7682 -2.3845,-8.5015 -3.4065,-9.4261 -0.2605,-0.2612 -0.2805,-0.2813 -0.2805,-0.3818 0,-0.1005 0.0601,-0.2412 0.2605,-0.2412 0.3206,0 1.3225,1.025 1.4828,1.2059 2.6851,2.8137 3.2462,6.4314 3.2462,8.8432 z" /></clipPath><clipPath
       id="clipPath494"
       clipPathUnits="userSpaceOnUse"><path
         id="path492"
         d="m 554.4821,360.3924 c 0.2405,0.9044 0.3006,1.2059 1.7734,1.2059 0.4809,0 0.7814,0 0.7814,0.5426 0,0.3317 -0.2705,0.3317 -0.3907,0.3317 -0.511,0 -1.082,-0.0603 -1.6231,-0.0603 H 553.37 c -1.2624,0 -2.5849,0.0603 -3.8473,0.0603 -0.2705,0 -0.6312,0 -0.6312,-0.5427 0,-0.3015 0.2405,-0.3015 0.2405,-0.3316 h 0.7514 c 2.4046,0 2.4046,-0.2412 2.4046,-0.6934 0,-0.0302 0,-0.2412 -0.1203,-0.7235 l -3.4565,-13.7774 c -0.7815,-3.075 -2.7953,-4.5522 -4.238,-4.5522 -1.022,0 -2.4647,0.4824 -2.8254,2.0802 0.1202,-0.0302 0.2705,-0.0603 0.3907,-0.0603 0.9919,0 1.7734,0.8742 1.7734,1.7485 0,0.4824 -0.3006,1.1155 -1.2023,1.1155 -0.541,0 -1.8034,-0.3015 -1.8034,-2.2611 0,-1.8993 1.563,-3.2257 3.7271,-3.2257 2.7351,0 5.6807,2.0801 6.4021,4.9441 z" /></clipPath><clipPath
       id="clipPath504"
       clipPathUnits="userSpaceOnUse"><path
         id="path502"
         d="m 567.2501,334.5562 c 0,0.0904 0,0.1507 -0.511,0.6632 -3.0056,3.0449 -4.6888,8.0192 -4.6888,14.1692 0,5.8486 1.4126,10.8832 4.8992,14.4406 0.3006,0.2713 0.3006,0.3316 0.3006,0.422 0,0.1809 -0.1503,0.2412 -0.2705,0.2412 -0.3907,0 -2.8554,-2.1706 -4.3282,-5.125 -1.5329,-3.0449 -2.2242,-6.2707 -2.2242,-9.9788 0,-2.6831 0.4208,-6.2706 1.9838,-9.4964 1.7733,-3.6176 4.238,-5.5772 4.5686,-5.5772 0.1202,0 0.2705,0.0603 0.2705,0.2412 z" /></clipPath><clipPath
       id="clipPath514"
       clipPathUnits="userSpaceOnUse"><path
         id="path512"
         d="m 576.7115,353.2475 h 3.3964 c -0.8115,-3.3765 -1.3225,-5.5773 -1.3225,-7.9891 0,-0.422 0,-3.6779 1.2324,-3.6779 0.6312,0 1.1722,0.5728 1.1722,1.0853 0,0.1507 0,0.211 -0.2104,0.6632 -0.8115,2.0802 -0.8115,4.6729 -0.8115,4.8839 0,0.1809 0,2.3213 0.6312,5.0346 h 3.3663 c 0.3908,0 1.3826,0 1.3826,0.9647 0,0.6632 -0.571,0.6632 -1.1121,0.6632 h -9.8887 c -0.6913,0 -1.7132,0 -3.0958,-1.4772 -0.7815,-0.8743 -1.7433,-2.4721 -1.7433,-2.6529 0,-0.1809 0.1502,-0.2412 0.3306,-0.2412 0.2104,0 0.2404,0.0904 0.3907,0.2713 1.563,2.4721 3.1259,2.4721 3.8774,2.4721 h 1.7132 c -0.6612,-2.2611 -1.4127,-4.8839 -3.8773,-10.1597 -0.2405,-0.4823 -0.2405,-0.5426 -0.2405,-0.7235 0,-0.6331 0.541,-0.7838 0.8115,-0.7838 0.8717,0 1.1122,0.7838 1.4728,2.05 0.4809,1.5375 0.4809,1.5978 0.7815,2.8037 z" /></clipPath><clipPath
       id="clipPath524"
       clipPathUnits="userSpaceOnUse"><path
         id="path522"
         d="m 592.561,341.7614 c 0,1.7485 -0.5711,3.0448 -1.8034,3.0448 -0.9619,0 -1.4428,-0.7838 -1.4428,-1.447 0,-0.6633 0.4509,-1.4772 1.4728,-1.4772 0.3907,0 0.7214,0.1205 0.9919,0.3919 0.0601,0.0603 0.0902,0.0603 0.1202,0.0603 0.0601,0 0.0601,-0.4221 0.0601,-0.5728 0,-0.9949 -0.1803,-2.9545 -1.9236,-4.914 -0.3306,-0.3618 -0.3306,-0.4221 -0.3306,-0.4824 0,-0.1507 0.1502,-0.3015 0.3005,-0.3015 0.2405,0 2.5549,2.2309 2.5549,5.6979 z" /></clipPath><clipPath
       id="clipPath534"
       clipPathUnits="userSpaceOnUse"><path
         id="path532"
         d="m 611.5765,354.2122 c -0.9317,-0.1809 -1.4126,-0.8441 -1.4126,-1.5074 0,-0.7235 0.571,-0.9647 0.9918,-0.9647 0.8416,0 1.5329,0.7236 1.5329,1.628 0,0.9647 -0.9317,1.8088 -2.4346,1.8088 -1.2023,0 -2.5849,-0.5426 -3.8473,-2.3816 -0.2104,1.5978 -1.4126,2.3816 -2.6149,2.3816 -1.1722,0 -1.7734,-0.9044 -2.1341,-1.5677 -0.5109,-1.0853 -0.9618,-2.8941 -0.9618,-3.0448 0,-0.1206 0.1203,-0.2714 0.3307,-0.2714 0.2404,0 0.2705,0.0302 0.4508,0.7236 0.4509,1.8088 1.0219,3.5574 2.2242,3.5574 0.7214,0 0.9318,-0.5125 0.9318,-1.3868 0,-0.6633 -0.3006,-1.839 -0.511,-2.7736 l -0.8416,-3.2559 c -0.1202,-0.5728 -0.4508,-1.9294 -0.6011,-2.472 -0.2104,-0.7839 -0.541,-2.2008 -0.541,-2.3515 0,-0.4221 0.3306,-0.7537 0.7814,-0.7537 0.3307,0 0.9017,0.211 1.0821,0.814 0.0902,0.2411 1.2023,4.7934 1.3826,5.4868 0.1503,0.6632 0.3306,1.2963 0.4809,1.9595 0.1202,0.4221 0.2405,0.9045 0.3306,1.2964 0.0902,0.2713 0.9017,1.7485 1.6532,2.4118 0.3607,0.3316 1.1421,1.025 2.3745,1.025 0.4809,0 0.9618,-0.0905 1.3525,-0.3618 z" /></clipPath><clipPath
       id="clipPath544"
       clipPathUnits="userSpaceOnUse"><path
         id="path542"
         d="m 622.4408,349.3886 c 0,2.2912 -0.3006,6.0295 -1.9838,9.5266 -1.7733,3.6176 -4.238,5.5772 -4.5686,5.5772 -0.1202,0 -0.2705,-0.0603 -0.2705,-0.2412 0,-0.0904 0,-0.1507 0.5109,-0.6632 3.0057,-3.0449 4.6889,-8.0192 4.6889,-14.1692 0,-5.8486 -1.4127,-10.8832 -4.8993,-14.4406 -0.3005,-0.2713 -0.3005,-0.3316 -0.3005,-0.422 0,-0.1809 0.1503,-0.2412 0.2705,-0.2412 0.3907,0 2.8554,2.1706 4.3282,5.125 1.5329,3.075 2.2242,6.331 2.2242,9.9486 z" /></clipPath><clipPath
       id="clipPath554"
       clipPathUnits="userSpaceOnUse"><path
         style="clip-rule:evenodd"
         id="path552"
         d="m 641,386.5 -9.9923,-5.2533 1.9083,11.1267 -8.084,7.8799 11.1718,1.6233 L 641,412 l 4.9962,-10.1234 11.1718,-1.6233 -8.084,-7.8799 1.9083,-11.1267 z" /></clipPath><clipPath
       id="clipPath564"
       clipPathUnits="userSpaceOnUse"><path
         style="clip-rule:evenodd"
         id="path562"
         d="m 403,267 c 4.4183,0 8,3.5817 8,8 0,4.4183 -3.5817,8 -8,8 -4.4183,0 -8,-3.5817 -8,-8 0,-4.4183 3.5817,-8 8,-8 z" /></clipPath><clipPath
       id="clipPath574"
       clipPathUnits="userSpaceOnUse"><path
         id="path572"
         d="m 438.9884,189.237 c 0.2114,0.8121 0.2642,1.0828 1.5587,1.0828 0.4227,0 0.6869,0 0.6869,0.4872 0,0.2978 -0.2377,0.2978 -0.3434,0.2978 -0.4491,0 -0.9511,-0.0541 -1.4266,-0.0541 h -1.4531 c -1.1096,0 -2.272,0.0541 -3.3816,0.0541 -0.2378,0 -0.5548,0 -0.5548,-0.4872 0,-0.2707 0.2113,-0.2707 0.2113,-0.2978 h 0.6605 c 2.1135,0 2.1135,-0.2166 2.1135,-0.6226 0,-0.0271 0,-0.2166 -0.1057,-0.6497 l -3.0381,-12.3708 c -0.6869,-2.7611 -2.457,-4.0875 -3.7251,-4.0875 -0.8983,0 -2.1664,0.4331 -2.4834,1.8678 0.1057,-0.0271 0.2377,-0.0542 0.3434,-0.0542 0.8719,0 1.5587,0.785 1.5587,1.5701 0,0.4331 -0.2641,1.0015 -1.0567,1.0015 -0.4756,0 -1.5852,-0.2707 -1.5852,-2.0302 0,-1.7054 1.3738,-2.8964 3.276,-2.8964 2.4041,0 4.9932,1.8678 5.6273,4.4394 z" /></clipPath><clipPath
       id="clipPath584"
       clipPathUnits="userSpaceOnUse"><path
         id="path582"
         d="m 450.2111,166.0383 c 0,0.0812 0,0.1353 -0.4491,0.5955 -2.6419,2.7341 -4.1214,7.2006 -4.1214,12.7228 0,5.2515 1.2417,9.7721 4.3063,12.9663 0.2642,0.2437 0.2642,0.2978 0.2642,0.379 0,0.1624 -0.1321,0.2166 -0.2378,0.2166 -0.3434,0 -2.5098,-1.949 -3.8043,-4.6019 -1.3474,-2.734 -1.955,-5.6305 -1.955,-8.96 0,-2.4092 0.3698,-5.6305 1.7436,-8.527 1.5587,-3.2483 3.7251,-5.0079 4.0157,-5.0079 0.1057,0 0.2378,0.0542 0.2378,0.2166 z" /></clipPath><clipPath
       id="clipPath594"
       clipPathUnits="userSpaceOnUse"><path
         id="path592"
         d="m 458.5274,182.8215 h 2.9853 c -0.7133,-3.0318 -1.1624,-5.0079 -1.1624,-7.1735 0,-0.379 0,-3.3025 1.0832,-3.3025 0.5548,0 1.0303,0.5144 1.0303,0.9745 0,0.1354 0,0.1895 -0.1849,0.5956 -0.7134,1.8678 -0.7134,4.1958 -0.7134,4.3853 0,0.1624 0,2.0843 0.5548,4.5206 h 2.959 c 0.3434,0 1.2153,0 1.2153,0.8662 0,0.5956 -0.502,0.5956 -0.9775,0.5956 h -8.6919 c -0.6077,0 -1.5059,0 -2.7212,-1.3265 -0.6869,-0.785 -1.5323,-2.2197 -1.5323,-2.3821 0,-0.1624 0.1321,-0.2166 0.2906,-0.2166 0.185,0 0.2114,0.0813 0.3435,0.2437 1.3738,2.2197 2.7476,2.2197 3.408,2.2197 h 1.5059 c -0.5812,-2.0302 -1.2417,-4.3853 -3.408,-9.1225 -0.2114,-0.4331 -0.2114,-0.4872 -0.2114,-0.6497 0,-0.5684 0.4756,-0.7038 0.7133,-0.7038 0.7662,0 0.9775,0.7038 1.2946,1.8408 0.4227,1.3805 0.4227,1.4347 0.6869,2.5174 z" /></clipPath><clipPath
       id="clipPath604"
       clipPathUnits="userSpaceOnUse"><path
         id="path602"
         d="m 472.4585,172.5079 c 0,1.5701 -0.5019,2.7341 -1.5851,2.7341 -0.8454,0 -1.2681,-0.7038 -1.2681,-1.2994 0,-0.5955 0.3962,-1.3264 1.2945,-1.3264 0.3434,0 0.6341,0.1083 0.8718,0.3519 0.0529,0.0542 0.0793,0.0542 0.1057,0.0542 0.0528,0 0.0528,-0.379 0.0528,-0.5144 0,-0.8933 -0.1585,-2.6528 -1.6908,-4.4123 -0.2906,-0.3248 -0.2906,-0.379 -0.2906,-0.4331 0,-0.1354 0.1321,-0.2707 0.2642,-0.2707 0.2114,0 2.2456,2.0031 2.2456,5.1161 z" /></clipPath><clipPath
       id="clipPath614"
       clipPathUnits="userSpaceOnUse"><path
         id="path612"
         d="m 489.2254,182.7944 c -0.5019,0 -0.7397,0 -1.1096,-0.3248 -0.1585,-0.1354 -0.4491,-0.5414 -0.4491,-0.9745 0,-0.5414 0.3963,-0.8663 0.8983,-0.8663 0.634,0 1.3473,0.5414 1.3473,1.6242 0,1.2994 -1.2152,2.3009 -3.0382,2.3009 -3.4609,0 -6.9218,-3.8709 -6.9218,-7.7148 0,-2.3551 1.4267,-4.4936 4.1214,-4.4936 3.593,0 5.865,2.8694 5.865,3.2213 0,0.1624 -0.1585,0.2978 -0.2641,0.2978 -0.0793,0 -0.1057,-0.0271 -0.3435,-0.2707 -1.6908,-2.3009 -4.2006,-2.707 -5.2045,-2.707 -1.823,0 -2.4042,1.6242 -2.4042,2.9777 0,0.9474 0.4491,3.5732 1.4002,5.4139 0.6869,1.2723 2.1136,2.7341 3.778,2.7341 0.3434,0 1.7965,-0.0542 2.3248,-1.2182 z" /></clipPath><clipPath
       id="clipPath624"
       clipPathUnits="userSpaceOnUse"><path
         id="path622"
         d="m 497.4789,179.3566 c 0,2.0573 -0.2642,5.4139 -1.7436,8.554 -1.5588,3.2483 -3.7251,5.0079 -4.0157,5.0079 -0.1057,0 -0.2378,-0.0542 -0.2378,-0.2166 0,-0.0812 0,-0.1353 0.4491,-0.5955 2.6419,-2.734 4.1214,-7.2005 4.1214,-12.7228 0,-5.2515 -1.2417,-9.7721 -4.3063,-12.9663 -0.2642,-0.2437 -0.2642,-0.2978 -0.2642,-0.379 0,-0.1624 0.1321,-0.2166 0.2378,-0.2166 0.3434,0 2.5098,1.9491 3.8043,4.6019 1.3474,2.7611 1.955,5.6846 1.955,8.933 z" /></clipPath><clipPath
       id="clipPath634"
       clipPathUnits="userSpaceOnUse"><path
         id="path632"
         d="m 524.8374,185.7992 c 0.4755,0.2165 0.5283,0.406 0.5283,0.5684 0,0.2978 -0.2113,0.5143 -0.5019,0.5143 -0.0529,0 -0.0793,-0.027 -0.4492,-0.1894 l -14.2927,-6.7404 c -0.4755,-0.2166 -0.5283,-0.406 -0.5283,-0.5685 0,-0.1894 0.0264,-0.3519 0.5283,-0.5955 l 14.2927,-6.7403 c 0.3435,-0.1625 0.3963,-0.1895 0.4492,-0.1895 0.2906,0 0.5019,0.2165 0.5019,0.5143 0,0.1624 -0.0528,0.3519 -0.5283,0.5685 l -13.6059,6.4155 z" /></clipPath><clipPath
       id="clipPath644"
       clipPathUnits="userSpaceOnUse"><path
         id="path642"
         d="m 548.9933,189.237 c 0.2114,0.8121 0.2642,1.0828 1.5588,1.0828 0.4227,0 0.6869,0 0.6869,0.4872 0,0.2978 -0.2378,0.2978 -0.3435,0.2978 -0.4491,0 -0.9511,-0.0541 -1.4266,-0.0541 h -1.4531 c -1.1096,0 -2.272,0.0541 -3.3816,0.0541 -0.2378,0 -0.5548,0 -0.5548,-0.4872 0,-0.2707 0.2114,-0.2707 0.2114,-0.2978 h 0.6604 c 2.1136,0 2.1136,-0.2166 2.1136,-0.6226 0,-0.0271 0,-0.2166 -0.1057,-0.6497 l -3.0382,-12.3708 c -0.6869,-2.7611 -2.457,-4.0875 -3.7251,-4.0875 -0.8982,0 -2.1664,0.4331 -2.4834,1.8678 0.1057,-0.0271 0.2378,-0.0542 0.3435,-0.0542 0.8718,0 1.5587,0.785 1.5587,1.5701 0,0.4331 -0.2642,1.0015 -1.0568,1.0015 -0.4755,0 -1.5851,-0.2707 -1.5851,-2.0302 0,-1.7054 1.3738,-2.8964 3.2759,-2.8964 2.4042,0 4.9932,1.8678 5.6273,4.4394 z" /></clipPath><clipPath
       id="clipPath654"
       clipPathUnits="userSpaceOnUse"><path
         id="path652"
         d="m 560.216,166.0383 c 0,0.0812 0,0.1353 -0.4491,0.5955 -2.6419,2.7341 -4.1214,7.2006 -4.1214,12.7228 0,5.2515 1.2417,9.7721 4.3063,12.9663 0.2642,0.2437 0.2642,0.2978 0.2642,0.379 0,0.1624 -0.1321,0.2166 -0.2378,0.2166 -0.3434,0 -2.5098,-1.949 -3.8043,-4.6019 -1.3474,-2.734 -1.955,-5.6305 -1.955,-8.96 0,-2.4092 0.3699,-5.6305 1.7437,-8.527 1.5587,-3.2483 3.725,-5.0079 4.0156,-5.0079 0.1057,0 0.2378,0.0542 0.2378,0.2166 z" /></clipPath><clipPath
       id="clipPath664"
       clipPathUnits="userSpaceOnUse"><path
         id="path662"
         d="m 568.5323,182.8215 h 2.9853 c -0.7133,-3.0318 -1.1624,-5.0079 -1.1624,-7.1735 0,-0.379 0,-3.3025 1.0832,-3.3025 0.5548,0 1.0303,0.5144 1.0303,0.9745 0,0.1354 0,0.1895 -0.1849,0.5956 -0.7133,1.8678 -0.7133,4.1958 -0.7133,4.3853 0,0.1624 0,2.0843 0.5548,4.5206 h 2.9589 c 0.3435,0 1.2153,0 1.2153,0.8662 0,0.5956 -0.502,0.5956 -0.9775,0.5956 h -8.6919 c -0.6076,0 -1.5059,0 -2.7211,-1.3265 -0.6869,-0.785 -1.5323,-2.2197 -1.5323,-2.3821 0,-0.1624 0.132,-0.2166 0.2906,-0.2166 0.1849,0 0.2113,0.0813 0.3434,0.2437 1.3738,2.2197 2.7476,2.2197 3.4081,2.2197 h 1.5059 c -0.5813,-2.0302 -1.2417,-4.3853 -3.4081,-9.1225 -0.2114,-0.4331 -0.2114,-0.4872 -0.2114,-0.6497 0,-0.5684 0.4756,-0.7038 0.7134,-0.7038 0.7661,0 0.9775,0.7038 1.2945,1.8408 0.4227,1.3805 0.4227,1.4347 0.6869,2.5174 z" /></clipPath><clipPath
       id="clipPath674"
       clipPathUnits="userSpaceOnUse"><path
         id="path672"
         d="m 589.5557,172.7426 c 0.0353,0.0722 0.0705,0.1804 0.0705,0.2526 0,0.0361 -0.0176,0.2527 -0.2642,0.2527 -0.1937,0 -0.2113,-0.0542 -0.3875,-0.4512 -1.1272,-2.6348 -1.955,-3.6454 -4.8259,-3.6454 h -3.2055 c -0.1585,0.0361 -0.2113,0.0361 -0.2113,0.1625 0,0.1443 0.0352,0.2887 0.0704,0.397 l 1.2153,4.9267 h 1.8846 c 1.2857,0 1.5499,-0.2166 1.5499,-0.7941 0,-0.018 0,-0.3068 -0.1233,-0.8121 -0.0352,-0.0902 -0.0528,-0.1985 -0.0528,-0.2526 0,-0.0181 0.0176,-0.2527 0.2641,-0.2527 0.2114,0 0.2466,0.1083 0.3171,0.4151 l 0.9335,3.7717 c 0.0176,0.0541 0.0704,0.3248 0.0704,0.3609 0,0.1805 -0.1409,0.2707 -0.2642,0.2707 -0.229,0 -0.2466,-0.1263 -0.3346,-0.4331 -0.3523,-1.4076 -0.8278,-1.6783 -2.3425,-1.6783 h -1.7613 l 1.0568,4.3131 c 0.1585,0.6497 0.1761,0.6858 0.8982,0.6858 h 2.7476 c 2.1135,0 2.7828,-0.4332 2.7828,-2.0213 0,-0.3789 -0.0881,-0.8301 -0.0881,-1.173 0,-0.2165 0.1233,-0.3068 0.2642,-0.3068 0.2466,0 0.2642,0.1625 0.2995,0.4692 l 0.317,3.0679 c 0.0176,0.0903 0.0176,0.2166 0.0176,0.3068 0,0.2527 -0.2114,0.2527 -0.5284,0.2527 h -9.2819 c -0.3346,0 -0.546,0 -0.546,-0.3429 0,-0.2526 0.229,-0.2526 0.5284,-0.2526 0.0528,0 0.3699,0 0.6693,-0.0361 0.3699,-0.0361 0.4051,-0.0903 0.4051,-0.2527 0,-0.0902 -0.0352,-0.1985 -0.0529,-0.2887 l -2.3601,-9.6729 c -0.1585,-0.6858 -0.1937,-0.8302 -1.497,-0.8302 -0.3347,0 -0.546,0 -0.546,-0.3428 0,-0.2527 0.2289,-0.2527 0.5283,-0.2527 h 9.5285 c 0.4403,0 0.458,0 0.5989,0.3248 z" /></clipPath><clipPath
       id="clipPath684"
       clipPathUnits="userSpaceOnUse"><path
         id="path682"
         d="m 597.3182,172.5079 c 0,1.5701 -0.5019,2.7341 -1.5851,2.7341 -0.8454,0 -1.2681,-0.7038 -1.2681,-1.2994 0,-0.5955 0.3963,-1.3264 1.2945,-1.3264 0.3435,0 0.6341,0.1083 0.8718,0.3519 0.0529,0.0542 0.0793,0.0542 0.1057,0.0542 0.0528,0 0.0528,-0.379 0.0528,-0.5144 0,-0.8933 -0.1585,-2.6528 -1.6908,-4.4123 -0.2906,-0.3248 -0.2906,-0.379 -0.2906,-0.4331 0,-0.1354 0.1321,-0.2707 0.2642,-0.2707 0.2114,0 2.2456,2.0031 2.2456,5.1161 z" /></clipPath><clipPath
       id="clipPath694"
       clipPathUnits="userSpaceOnUse"><path
         id="path692"
         d="m 614.0851,182.7944 c -0.5019,0 -0.7397,0 -1.1096,-0.3248 -0.1585,-0.1354 -0.4491,-0.5414 -0.4491,-0.9745 0,-0.5414 0.3963,-0.8663 0.8983,-0.8663 0.634,0 1.3473,0.5414 1.3473,1.6242 0,1.2994 -1.2152,2.3009 -3.0382,2.3009 -3.4609,0 -6.9217,-3.8709 -6.9217,-7.7148 0,-2.3551 1.4266,-4.4936 4.1213,-4.4936 3.593,0 5.8651,2.8694 5.8651,3.2213 0,0.1624 -0.1586,0.2978 -0.2642,0.2978 -0.0793,0 -0.1057,-0.0271 -0.3435,-0.2707 -1.6908,-2.3009 -4.2006,-2.707 -5.2045,-2.707 -1.823,0 -2.4042,1.6242 -2.4042,2.9777 0,0.9474 0.4492,3.5732 1.4002,5.4139 0.6869,1.2723 2.1136,2.7341 3.778,2.7341 0.3434,0 1.7965,-0.0542 2.3248,-1.2182 z" /></clipPath><clipPath
       id="clipPath704"
       clipPathUnits="userSpaceOnUse"><path
         id="path702"
         d="m 622.3386,179.3566 c 0,2.0573 -0.2642,5.4139 -1.7436,8.554 -1.5587,3.2483 -3.7251,5.0079 -4.0157,5.0079 -0.1057,0 -0.2378,-0.0542 -0.2378,-0.2166 0,-0.0812 0,-0.1353 0.4491,-0.5955 2.6419,-2.734 4.1214,-7.2005 4.1214,-12.7228 0,-5.2515 -1.2417,-9.7721 -4.3063,-12.9663 -0.2642,-0.2437 -0.2642,-0.2978 -0.2642,-0.379 0,-0.1624 0.1321,-0.2166 0.2378,-0.2166 0.3434,0 2.5098,1.9491 3.8043,4.6019 1.3474,2.7611 1.955,5.6846 1.955,8.933 z" /></clipPath></defs><g
     transform="matrix(1.3333333,0,0,-1.3333333,0,681.33333)"
     id="g10"><g
       id="g12" /><g
       id="g14"><path
         id="path16"
         style="fill:#ffffff;fill-opacity:1;fill-rule:nonzero;stroke:none"
         d="M 0,511 H 820 V 0 H 0 Z" /></g><g
       id="g18"><g
         clip-path="url(#clipPath24)"
         id="g20"><path
           id="path26"
           style="fill:#46b9b4;fill-opacity:0.50110001;fill-rule:nonzero;stroke:none"
           d="M 398,400 H 646 V 72 H 398 Z" /></g></g><g
       id="g28"><g
         clip-path="url(#clipPath34)"
         id="g30"><path
           id="path36"
           style="fill:#f5a623;fill-opacity:0.35;fill-rule:nonzero;stroke:none"
           d="M 162,400 H 646 V 272 H 162 Z" /></g></g><g
       id="g38"><g
         transform="matrix(1,0,0,-1,165,417)"
         id="g40"><path
           id="path42"
           style="fill:none;stroke:#000000;stroke-width:3;stroke-linecap:square;stroke-linejoin:miter;stroke-miterlimit:10;stroke-dasharray:none;stroke-opacity:1"
           d="M 1.5,0.5 V 338.7898" /></g><g
         transform="matrix(1,0,0,-1,167,80)"
         id="g44"><path
           id="path46"
           style="fill:none;stroke:#000000;stroke-width:3;stroke-linecap:square;stroke-linejoin:miter;stroke-miterlimit:10;stroke-dasharray:none;stroke-opacity:1"
           d="M 480.0183,1.789817 H 0.5" /></g></g><g
       id="g48"><g
         clip-path="url(#clipPath54)"
         id="g50"><path
           id="path56"
           style="fill:#242424;fill-opacity:1;fill-rule:nonzero;stroke:none"
           d="m 154,433 h 24 v -24 h -24 z" /></g></g><g
       id="g58"><g
         clip-path="url(#clipPath64)"
         id="g60"><path
           id="path66"
           style="fill:#242424;fill-opacity:1;fill-rule:nonzero;stroke:none"
           d="M 660,91 V 67 h -24 v 24 z" /></g></g><g
       id="g68"><g
         clip-path="url(#clipPath74)"
         id="g70"><path
           id="path76"
           style="fill:#000000;fill-opacity:1;fill-rule:nonzero;stroke:none"
           d="M 9.679102,439.4642 H 45.01535 V 396.6873 H 9.679102 Z" /></g></g><g
       id="g78"><g
         clip-path="url(#clipPath84)"
         id="g80"><path
           id="path86"
           style="fill:#000000;fill-opacity:1;fill-rule:nonzero;stroke:none"
           d="M 40.30755,442.5836 H 60.95816 V 385.9789 H 40.30755 Z" /></g></g><g
       id="g88"><g
         clip-path="url(#clipPath94)"
         id="g90"><path
           id="path96"
           style="fill:#000000;fill-opacity:1;fill-rule:nonzero;stroke:none"
           d="m 54.79534,427.7316 h 34.7263 v -30.5321 h -34.7263 z" /></g></g><g
       id="g98"><g
         clip-path="url(#clipPath104)"
         id="g100"><path
           id="path106"
           style="fill:#000000;fill-opacity:1;fill-rule:nonzero;stroke:none"
           d="M 85.40129,412.1812 H 100.4685 V 388.6793 H 85.40129 Z" /></g></g><g
       id="g108"><g
         clip-path="url(#clipPath114)"
         id="g110"><path
           id="path116"
           style="fill:#000000;fill-opacity:1;fill-rule:nonzero;stroke:none"
           d="m 103.1673,428.1972 h 28.7206 v -30.9977 h -28.7206 z" /></g></g><g
       id="g118"><g
         clip-path="url(#clipPath124)"
         id="g120"><path
           id="path126"
           style="fill:#000000;fill-opacity:1;fill-rule:nonzero;stroke:none"
           d="m 126.4605,442.5836 h 20.6506 v -56.6047 h -20.6506 z" /></g></g><g
       id="g128"><g
         clip-path="url(#clipPath134)"
         id="g130"><path
           id="path136"
           style="fill:#000000;fill-opacity:1;fill-rule:nonzero;stroke:none"
           d="m 543.2835,62.14048 h 32.1171 V 23.39044 h -32.1171 z" /></g></g><g
       id="g138"><g
         clip-path="url(#clipPath144)"
         id="g140"><path
           id="path146"
           style="fill:#000000;fill-opacity:1;fill-rule:nonzero;stroke:none"
           d="m 570.0204,64.87664 h 19.2974 V 13.99767 h -19.2974 z" /></g></g><g
       id="g148"><g
         clip-path="url(#clipPath154)"
         id="g150"><path
           id="path156"
           style="fill:#000000;fill-opacity:1;fill-rule:nonzero;stroke:none"
           d="m 582.6675,51.84927 h 31.5847 V 23.83966 h -31.5847 z" /></g></g><g
       id="g158"><g
         clip-path="url(#clipPath164)"
         id="g160"><path
           id="path166"
           style="fill:#000000;fill-opacity:1;fill-rule:nonzero;stroke:none"
           d="m 609.3848,38.20934 h 14.4235 V 16.36628 h -14.4235 z" /></g></g><g
       id="g168"><g
         clip-path="url(#clipPath174)"
         id="g170"><path
           id="path176"
           style="fill:#000000;fill-opacity:1;fill-rule:nonzero;stroke:none"
           d="m 627.1872,45.27433 h 35.0252 V 33.64081 h -35.0252 z" /></g></g><g
       id="g178"><g
         clip-path="url(#clipPath184)"
         id="g180"><path
           id="path186"
           style="fill:#000000;fill-opacity:1;fill-rule:nonzero;stroke:none"
           d="m 657.2821,52.25766 h 25.482 v -28.418 h -25.482 z" /></g></g><g
       id="g188"><g
         clip-path="url(#clipPath194)"
         id="g190"><path
           id="path196"
           style="fill:#000000;fill-opacity:1;fill-rule:nonzero;stroke:none"
           d="m 675.1564,64.87664 h 19.2974 V 13.99767 h -19.2974 z" /></g></g><g
       id="g198"><g
         transform="matrix(1,0,0,-1,373,504)"
         id="g200"><text
           id="text204"
           style="font-variant:normal;font-weight:normal;font-size:50px;font-family:Palatino;-inkscape-font-specification:Palatino-Roman;writing-mode:lr-tb;fill:#000000;fill-opacity:1;fill-rule:nonzero;stroke:none"
           transform="translate(0.4127607,52)"><tspan
             id="tspan202"
             y="0"
             x="0 16.625 51.849998">ICL</tspan></text>
</g><g
         transform="matrix(1,0,0,-1,691,378)"
         id="g206"><text
           id="text210"
           style="font-style:italic;font-variant:normal;font-size:30px;font-family:Palatino;-inkscape-font-specification:Palatino-Italic;writing-mode:lr-tb;fill:#f56963;fill-opacity:1;fill-rule:nonzero;stroke:none"
           transform="translate(2.855144,32)"><tspan
             id="tspan208"
             y="0"
             x="0 23.202 31.403999 47.945999 56.147999 79.349998 87.552002 100.734">minimize</tspan></text>
</g><g
         transform="matrix(1,0,0,-1,691,378)"
         id="g212"><text
           id="text216"
           style="font-style:italic;font-variant:normal;font-size:30px;font-family:Palatino;-inkscape-font-specification:Palatino-Italic;writing-mode:lr-tb;fill:#f56963;fill-opacity:1;fill-rule:nonzero;stroke:none"
           transform="translate(23.70654,72)"><tspan
             id="tspan214"
             y="0"
             x="0 13.182 28.044001 39.576 51.108002 58.470001">over c</tspan></text>
</g></g><g
       id="g218"><g
         clip-path="url(#clipPath224)"
         id="g220"><path
           id="path226"
           style="fill:#008000;fill-opacity:1;fill-rule:nonzero;stroke:none"
           d="M 330.9974,262.4377 H 362.543 V 234.4112 H 330.9974 Z" /></g></g><g
       id="g228"><g
         clip-path="url(#clipPath234)"
         id="g230"><path
           id="path236"
           style="fill:#008000;fill-opacity:1;fill-rule:nonzero;stroke:none"
           d="m 354.0054,257.2192 h 30.4418 v -28.5307 h -30.4418 z" /></g></g><g
       id="g238"><g
         transform="matrix(1,0,0,-1,401.5,392)"
         id="g240"><path
           id="path242"
           style="fill:none;stroke:#000000;stroke-width:3;stroke-linecap:square;stroke-linejoin:miter;stroke-miterlimit:10;stroke-dasharray:10, 10;stroke-dashoffset:0;stroke-opacity:1"
           d="M 1.5,0.5 V 313.7111" /></g><g
         transform="matrix(1,0,0,-1,168,279)"
         id="g244"><path
           id="path246"
           style="fill:none;stroke:#000000;stroke-width:3;stroke-linecap:square;stroke-linejoin:miter;stroke-miterlimit:10;stroke-dasharray:10, 10;stroke-dashoffset:0;stroke-opacity:1"
           d="M 0.5,1.5 H 466.5526" /></g></g><g
       id="g248"><g
         clip-path="url(#clipPath254)"
         id="g250"><path
           id="path256"
           style="fill:#ff8c00;fill-opacity:1;fill-rule:nonzero;stroke:none"
           d="m 178.6338,357.7659 h 24.0895 v -28.246 h -24.0895 z" /></g></g><g
       id="g258"><g
         clip-path="url(#clipPath264)"
         id="g260"><path
           id="path266"
           style="fill:#ff8c00;fill-opacity:1;fill-rule:nonzero;stroke:none"
           d="m 195.6663,359.5024 h 15.9228 v -35.9435 h -15.9228 z" /></g></g><g
       id="g268"><g
         clip-path="url(#clipPath274)"
         id="g270"><path
           id="path276"
           style="fill:#ff8c00;fill-opacity:1;fill-rule:nonzero;stroke:none"
           d="m 203.7229,351.2347 h 23.7503 V 329.805 h -23.7503 z" /></g></g><g
       id="g278"><g
         clip-path="url(#clipPath284)"
         id="g280"><path
           id="path286"
           style="fill:#ff8c00;fill-opacity:1;fill-rule:nonzero;stroke:none"
           d="m 220.7428,342.5782 h 12.8179 v -17.5161 h -12.8179 z" /></g></g><g
       id="g288"><g
         clip-path="url(#clipPath294)"
         id="g290"><path
           id="path296"
           style="fill:#ff8c00;fill-opacity:1;fill-rule:nonzero;stroke:none"
           d="M 230.6225,351.4939 H 251.033 V 329.805 h -20.4105 z" /></g></g><g
       id="g298"><g
         clip-path="url(#clipPath304)"
         id="g300"><path
           id="path306"
           style="fill:#ff8c00;fill-opacity:1;fill-rule:nonzero;stroke:none"
           d="m 243.5758,359.5024 h 15.9228 v -35.9435 h -15.9228 z" /></g></g><g
       id="g308"><g
         clip-path="url(#clipPath314)"
         id="g310"><path
           id="path316"
           style="fill:#ff8c00;fill-opacity:1;fill-rule:nonzero;stroke:none"
           d="m 261.463,353.7228 h 25.5767 V 329.3385 H 261.463 Z" /></g></g><g
       id="g318"><g
         clip-path="url(#clipPath324)"
         id="g320"><path
           id="path326"
           style="fill:#ff8c00;fill-opacity:1;fill-rule:nonzero;stroke:none"
           d="m 288.5028,357.7659 h 24.0894 v -28.246 h -24.0894 z" /></g></g><g
       id="g328"><g
         clip-path="url(#clipPath334)"
         id="g330"><path
           id="path336"
           style="fill:#ff8c00;fill-opacity:1;fill-rule:nonzero;stroke:none"
           d="M 305.5352,359.5024 H 321.458 V 323.5589 H 305.5352 Z" /></g></g><g
       id="g338"><g
         clip-path="url(#clipPath344)"
         id="g340"><path
           id="path346"
           style="fill:#ff8c00;fill-opacity:1;fill-rule:nonzero;stroke:none"
           d="m 313.5918,351.2347 h 23.7503 V 329.805 h -23.7503 z" /></g></g><g
       id="g348"><g
         clip-path="url(#clipPath354)"
         id="g350"><path
           id="path356"
           style="fill:#ff8c00;fill-opacity:1;fill-rule:nonzero;stroke:none"
           d="m 328.2753,347.9259 h 23.0458 v -21.7493 h -23.0458 z" /></g></g><g
       id="g358"><g
         clip-path="url(#clipPath364)"
         id="g360"><path
           id="path366"
           style="fill:#ff8c00;fill-opacity:1;fill-rule:nonzero;stroke:none"
           d="m 345.2824,342.5782 h 12.8179 v -17.5161 h -12.8179 z" /></g></g><g
       id="g368"><g
         clip-path="url(#clipPath374)"
         id="g370"><path
           id="path376"
           style="fill:#ff8c00;fill-opacity:1;fill-rule:nonzero;stroke:none"
           d="m 355.162,351.4939 h 20.4105 V 329.805 H 355.162 Z" /></g></g><g
       id="g378"><g
         clip-path="url(#clipPath384)"
         id="g380"><path
           id="path386"
           style="fill:#ff8c00;fill-opacity:1;fill-rule:nonzero;stroke:none"
           d="m 368.1153,359.5024 h 15.9228 v -35.9435 h -15.9228 z" /></g></g><g
       id="g388"><g
         transform="matrix(1,0,0,-1,673,392)"
         id="g390"><path
           id="path392"
           style="fill:none;stroke:#f05151;stroke-width:3;stroke-linecap:square;stroke-linejoin:miter;stroke-miterlimit:10;stroke-dasharray:none;stroke-opacity:1"
           d="M 1.5,0.5 V 112.7185" /></g><g
         transform="matrix(1,0,0,-1,673,392)"
         id="g394"><path
           id="path396"
           style="fill:none;stroke:#f05151;stroke-width:3;stroke-linecap:square;stroke-linejoin:miter;stroke-miterlimit:10;stroke-dasharray:none;stroke-opacity:1"
           d="M 1.5,0.5 V 112.7185 M 4.5,0.5 h -6 m 6,112.2185 h -6" /></g></g><g
       id="g398"><g
         clip-path="url(#clipPath404)"
         id="g400"><path
           id="path406"
           style="fill:#000000;fill-opacity:1;fill-rule:nonzero;stroke:none"
           d="m 467.5644,360.1769 h 32.8733 V 336.882 h -32.8733 z" /></g></g><g
       id="g408"><g
         clip-path="url(#clipPath414)"
         id="g410"><path
           id="path416"
           style="fill:#000000;fill-opacity:1;fill-rule:nonzero;stroke:none"
           d="m 492.4504,360.3276 h 23.225 v -23.7471 h -23.225 z" /></g></g><g
       id="g418"><g
         clip-path="url(#clipPath424)"
         id="g420"><path
           id="path426"
           style="fill:#000000;fill-opacity:1;fill-rule:nonzero;stroke:none"
           d="m 506.1437,359.8754 h 24.9082 V 336.882 h -24.9082 z" /></g></g><g
       id="g428"><g
         clip-path="url(#clipPath434)"
         id="g430"><path
           id="path436"
           style="fill:#000000;fill-opacity:1;fill-rule:nonzero;stroke:none"
           d="m 460.1371,335.4461 h 21.5218 v -18.8633 h -21.5218 z" /></g></g><g
       id="g438"><g
         clip-path="url(#clipPath444)"
         id="g440"><path
           id="path446"
           style="fill:#000000;fill-opacity:1;fill-rule:nonzero;stroke:none"
           d="m 474.2642,338.1191 h 20.6401 v -22.6216 h -20.6401 z" /></g></g><g
       id="g448"><g
         clip-path="url(#clipPath454)"
         id="g450"><path
           id="path456"
           style="fill:#000000;fill-opacity:1;fill-rule:nonzero;stroke:none"
           d="m 487.5762,340.4505 h 24.1669 v -23.6667 h -24.1669 z" /></g></g><g
       id="g458"><g
         clip-path="url(#clipPath464)"
         id="g460"><path
           id="path466"
           style="fill:#000000;fill-opacity:1;fill-rule:nonzero;stroke:none"
           d="m 504.7056,341.8574 h 15.0095 v -30.0982 h -15.0095 z" /></g></g><g
       id="g468"><g
         clip-path="url(#clipPath474)"
         id="g470"><path
           id="path476"
           style="fill:#000000;fill-opacity:1;fill-rule:nonzero;stroke:none"
           d="m 511.803,335.6471 h 18.3558 V 316.5828 H 511.803 Z" /></g></g><g
       id="g478"><g
         clip-path="url(#clipPath484)"
         id="g480"><path
           id="path486"
           style="fill:#000000;fill-opacity:1;fill-rule:nonzero;stroke:none"
           d="m 521.3449,341.8574 h 14.9895 v -30.0982 h -14.9895 z" /></g></g><g
       id="g488"><g
         clip-path="url(#clipPath494)"
         id="g490"><path
           id="path496"
           style="fill:#000000;fill-opacity:1;fill-rule:nonzero;stroke:none"
           d="m 535.8062,367.4726 h 26.2307 v -31.2237 h -26.2307 z" /></g></g><g
       id="g498"><g
         clip-path="url(#clipPath504)"
         id="g500"><path
           id="path506"
           style="fill:#000000;fill-opacity:1;fill-rule:nonzero;stroke:none"
           d="m 555.4272,369.4924 h 16.8229 V 329.315 h -16.8229 z" /></g></g><g
       id="g508"><g
         clip-path="url(#clipPath514)"
         id="g510"><path
           id="path516"
           style="fill:#000000;fill-opacity:1;fill-rule:nonzero;stroke:none"
           d="m 564.7083,359.8754 h 25.8399 v -23.2949 h -25.8399 z" /></g></g><g
       id="g518"><g
         clip-path="url(#clipPath524)"
         id="g520"><path
           id="path526"
           style="fill:#000000;fill-opacity:1;fill-rule:nonzero;stroke:none"
           d="M 584.3148,349.8062 H 597.561 V 331.0635 H 584.3148 Z" /></g></g><g
       id="g528"><g
         clip-path="url(#clipPath534)"
         id="g530"><path
           id="path536"
           style="fill:#000000;fill-opacity:1;fill-rule:nonzero;stroke:none"
           d="m 595.6959,360.1769 h 21.9927 v -23.5964 h -21.9927 z" /></g></g><g
       id="g538"><g
         clip-path="url(#clipPath544)"
         id="g540"><path
           id="path546"
           style="fill:#000000;fill-opacity:1;fill-rule:nonzero;stroke:none"
           d="m 610.6179,369.4924 h 16.8229 V 329.315 h -16.8229 z" /></g></g><g
       id="g548"><g
         clip-path="url(#clipPath554)"
         id="g550"><path
           id="path556"
           style="fill:#000000;fill-opacity:1;fill-rule:nonzero;stroke:none"
           d="m 619.832,417 h 42.336 v -40.7533 h -42.336 z" /></g></g><g
       id="g558"><g
         clip-path="url(#clipPath564)"
         id="g560"><path
           id="path566"
           style="fill:#008000;fill-opacity:1;fill-rule:nonzero;stroke:none"
           d="m 390,288 h 26 v -26 h -26 z" /></g></g><g
       id="g568"><g
         clip-path="url(#clipPath574)"
         id="g570"><path
           id="path576"
           style="fill:#008080;fill-opacity:1;fill-rule:nonzero;stroke:none"
           d="m 421.9677,196.1048 h 24.2663 v -29.057 h -24.2663 z" /></g></g><g
       id="g578"><g
         clip-path="url(#clipPath584)"
         id="g580"><path
           id="path586"
           style="fill:#008080;fill-opacity:1;fill-rule:nonzero;stroke:none"
           d="m 439.214,197.9185 h 15.9971 V 160.8217 H 439.214 Z" /></g></g><g
       id="g588"><g
         clip-path="url(#clipPath594)"
         id="g590"><path
           id="path596"
           style="fill:#008080;fill-opacity:1;fill-rule:nonzero;stroke:none"
           d="m 447.3717,189.2833 h 23.9229 v -21.9378 h -23.9229 z" /></g></g><g
       id="g598"><g
         clip-path="url(#clipPath604)"
         id="g600"><path
           id="path606"
           style="fill:#008080;fill-opacity:1;fill-rule:nonzero;stroke:none"
           d="m 464.6053,180.242 h 12.8532 v -17.8502 h -12.8532 z" /></g></g><g
       id="g608"><g
         clip-path="url(#clipPath614)"
         id="g610"><path
           id="path616"
           style="fill:#008080;fill-opacity:1;fill-rule:nonzero;stroke:none"
           d="m 474.9523,189.5539 h 19.9864 v -22.2084 h -19.9864 z" /></g></g><g
       id="g618"><g
         clip-path="url(#clipPath624)"
         id="g620"><path
           id="path626"
           style="fill:#008080;fill-opacity:1;fill-rule:nonzero;stroke:none"
           d="m 486.4818,197.9185 h 15.9971 v -37.0968 h -15.9971 z" /></g></g><g
       id="g628"><g
         clip-path="url(#clipPath634)"
         id="g630"><path
           id="path636"
           style="fill:#008080;fill-opacity:1;fill-rule:nonzero;stroke:none"
           d="m 504.5936,191.8819 h 25.7721 v -25.0236 h -25.7721 z" /></g></g><g
       id="g638"><g
         clip-path="url(#clipPath644)"
         id="g640"><path
           id="path646"
           style="fill:#008080;fill-opacity:1;fill-rule:nonzero;stroke:none"
           d="m 531.9727,196.1048 h 24.2663 v -29.057 h -24.2663 z" /></g></g><g
       id="g648"><g
         clip-path="url(#clipPath654)"
         id="g650"><path
           id="path656"
           style="fill:#008080;fill-opacity:1;fill-rule:nonzero;stroke:none"
           d="M 549.2189,197.9185 H 565.216 V 160.8217 H 549.2189 Z" /></g></g><g
       id="g658"><g
         clip-path="url(#clipPath664)"
         id="g660"><path
           id="path666"
           style="fill:#008080;fill-opacity:1;fill-rule:nonzero;stroke:none"
           d="m 557.3767,189.2833 h 23.9228 v -21.9378 h -23.9228 z" /></g></g><g
       id="g668"><g
         clip-path="url(#clipPath674)"
         id="g670"><path
           id="path676"
           style="fill:#008080;fill-opacity:1;fill-rule:nonzero;stroke:none"
           d="M 572.2445,185.8274 H 595.454 V 163.5558 H 572.2445 Z" /></g></g><g
       id="g678"><g
         clip-path="url(#clipPath684)"
         id="g680"><path
           id="path686"
           style="fill:#008080;fill-opacity:1;fill-rule:nonzero;stroke:none"
           d="m 589.465,180.242 h 12.8532 V 162.3918 H 589.465 Z" /></g></g><g
       id="g688"><g
         clip-path="url(#clipPath694)"
         id="g690"><path
           id="path696"
           style="fill:#008080;fill-opacity:1;fill-rule:nonzero;stroke:none"
           d="m 599.8121,189.5539 h 19.9864 v -22.2084 h -19.9864 z" /></g></g><g
       id="g698"><g
         clip-path="url(#clipPath704)"
         id="g700"><path
           id="path706"
           style="fill:#008080;fill-opacity:1;fill-rule:nonzero;stroke:none"
           d="m 611.3415,197.9185 h 15.9971 v -37.0968 h -15.9971 z" /></g></g></g></svg>